<?xml version="1.0" encoding="UTF-8"?>
<svg id="grey_logo" xmlns="http://www.w3.org/2000/svg" version="1.1" xmlns:xlink="http://www.w3.org/1999/xlink" viewBox="0 0 1920 1080">
  <!-- Generator: Adobe Illustrator 29.2.1, SVG Export Plug-In . SVG Version: 2.1.0 Build 116)  -->
  <defs>
    <style>
      .st0, .st1 {
        fill: #fff;
      }

      .st2, .st3, .st4 {
        fill: none;
      }

      .st5 {
        fill: #999;
      }

      .st3 {
        stroke: url(#linear-gradient1);
      }

      .st3, .st4 {
        stroke-width: 2px;
      }

      .st3, .st4, .st1 {
        stroke-miterlimit: 10;
      }

      .st4 {
        stroke: url(#linear-gradient);
      }

      .st1 {
        stroke: #999;
        stroke-width: 12px;
      }
    </style>
    <linearGradient id="linear-gradient" x1="1447.48" y1="603.96" x2="1481.84" y2="603.96" gradientTransform="translate(0 1080) scale(1 -1)" gradientUnits="userSpaceOnUse">
      <stop offset="0" stop-color="#ccc"/>
      <stop offset="0" stop-color="#cacaca"/>
      <stop offset="0" stop-color="#e6e6e6"/>
      <stop offset="1" stop-color="#999"/>
    </linearGradient>
    <linearGradient id="linear-gradient1" x1="1422.49" y1="642.01" x2="1441.16" y2="642.01" gradientTransform="translate(0 1080) scale(1 -1)" gradientUnits="userSpaceOnUse">
      <stop offset="0" stop-color="#ccc"/>
      <stop offset="0" stop-color="#cacaca"/>
      <stop offset="0" stop-color="#e6e6e6"/>
      <stop offset="1" stop-color="#999"/>
    </linearGradient>
  </defs>
  <g id="text">
    <path class="st1" d="M706.31,612.27"/>
    <g>
      <path class="st0" d="M689.84,574.54c1.69,4.66,9.88,20.78,24.95,28.58,24.05,12.49,45.2,8.94,45.2,5.37"/>
      <path class="st5" d="M692.01,573.77c4.82,5.18,10.54,9.63,16.18,12.67,2.82,1.55,5.68,2.67,8.33,3.55,1.21.52,2.11,1.57,3.45,1.84.58.13,1.34.5,1.96.92,6.1,3.61,12.38,6.49,18.81,9.67,4.45,2.19,9.33,5.01,14.32,6.43,1.69.35,3.67.92,4.93-.33.25.48-.02,1.13-.31,1.59-13.2,13.76-36.06,12.15-51.61,3.49-9.79-5.37-14.95-16.2-18.21-26.27-1.19-3.93-1.98-7.83-2.21-11.96l4.32-1.57h0l.04-.02Z"/>
    </g>
    <g>
      <path class="st0" d="M549.52,345.55c-14.76,10.29-48.94,54.37-41.84,123.5,7.39,72.03,41.84,105.48,76.32,126.07,54.5,32.55,128.01,10.29,160.02-51.47,34.62-66.81,27.69-179.67-34.47-223.85-30.78-21.86-99.09-31.9-141.54,19.29-32.01,38.59-37.29,95.5-23.39,137.66,26.45,80.2,151.21,105.78,226.48,72.03,6.12-2.74,11.11-5.51,14.76-7.73"/>
      <path class="st5" d="M550.72,347.27c.58,3.55.29,5.28-.42,6.74-2.88,3.59-5.89,7.08-8.37,11.05-10.31,15.85-17.06,34.01-20.65,52.53-5.05,25.01-2.09,50.72,3.05,75.52,8.31,40.97,34.03,74.52,70.62,93.77,40.63,21.86,93.75,8.23,122.92-26.73,38.96-46.5,42.89-125.4,21.49-180.46-9.06-22.61-23.07-43.89-44.6-55.92-21.38-11.3-48.07-14.34-71.74-9.02-64.6,14.49-92.48,96.86-75.63,155.62,9.9,39.23,44.97,66.04,81.81,79.05,49.67,17.29,109.97,18.29,156.51-8.64l.4.67c-11.69,6.97-24.24,12.49-37.35,16.2-63.27,17.48-146.35,4.51-190.42-47.56-18.27-21.78-25.03-50.74-25.95-78.57-1.8-42.72,12.47-87.51,46.71-115.01,37.77-30.99,94.84-32.51,135.86-6.66,73.87,49.21,77.88,177.96,35.08,248.7-30.84,52.12-99.22,79.24-156.35,55.35-33.6-14.51-62.93-41.01-79.3-74.02-25.22-51.78-27.73-116.63,1.71-167.14,6.7-10.84,14.55-21.49,24.83-29.21,1.77-.84,4.18-1.19,7.5.38l2.38,3.42h0l-.06-.06Z"/>
    </g>
    <path class="st1" d="M699.69,595.13"/>
    <g>
      <path class="st0" d="M824.34,479.66c-33.68,42.89-28.35,99.18.29,122.21,18.12,14.59,47.1,15.03,66.84,3.36,29.88-17.66,41.01-73.25,7.06-125.59"/>
      <path class="st5" d="M824.34,479.66c-9.65,19.29-14.64,38.98-13.97,59.8-.08,31.84,14.7,61.45,49.51,61.45,35.95.08,50.05-27.08,50.22-60.38.71-20.9-3.88-40.65-11.55-60.84,15.68,15.66,26.87,37.31,29.84,59.82,2.61,24.16-3.59,50.26-21.07,68.26-18.88,18.27-48.5,23.03-72.83,13.66-32.43-12.26-46.48-50.82-42.26-83.12,3.26-22.49,15.2-44.26,32.13-58.61h0l-.02-.02Z"/>
    </g>
    <g>
      <g>
        <path class="st0" d="M1064.81,506.6c-2.86-4.51-13.55-21.21-33.83-26.6-21.65-5.76-43.35,2.84-56.23,18.58-28.65,34.95-26.52,84.71,9.54,109.87,8.98,6.26,17.98,9.33,26.52,10.15,25.03,2.38,42.97-14.87,45.27-17.33,14.11-15.28,16.52-27.85,18.98-48.44,0,0,1.63-27.46-10.27-46.23h.02Z"/>
        <path class="st5" d="M1059.53,509.96c-12.34-18.9-36.56-29.96-57.65-19.44-19.33,9.35-30.32,32.24-33.64,52.57-2.09,14.28.98,28.81,8.44,40.57,7.16,11.76,18.58,23.18,32.63,26.08,24.18,5.18,50.19-12.86,57.48-35.91,1.52-5.97,1.86-12.15,2.67-18.31.08-.86.38-3.45.33-4.28-.19-14.01-2.63-29.67-10.27-41.28h0ZM1070.1,503.26c8.69,14.97,10.79,31.51,10.4,48.21-.52,6.12-1.52,12.26-3.07,18.29l-1.82,6.51c-2.51,10.11-7.18,19.73-13.68,27.9-21.17,24.41-55.81,30.13-83.33,12.9-36.71-20.11-45-70.16-26.58-105.48,4.53-8.81,10-16.79,17.14-23.74,31.49-29.17,80.53-22.26,100.93,15.39h0v.02Z"/>
      </g>
      <g>
        <path class="st0" d="M1063.29,593.17c2.19,11.8,2.03,29.02,25.03,27h0"/>
        <path class="st5" d="M1068.32,592.23c4.45,4.26,5.09,11.8,7.64,16.33,1.98,5.18,6.74,7.73,12.34,11.34l.04.52c-3.36,2.88-7.39,4.68-12.28,4.86-14.34.44-23.51-19.04-17.81-31.19l10.04-1.86h.02Z"/>
      </g>
    </g>
    <path class="st1" d="M1106.99,512.95"/>
    <g>
      <g>
        <path class="st0" d="M1191.32,603.73c-3.09,5.78-13.45,11.5-30.82,8.69-8.83-1.42-13.72-6.7-15.41-8.69-8.04-9.44-18.83-63.27-1.55-140.46"/>
        <path class="st5" d="M1191.32,603.73c-3.99,12.67-19.92,16.98-31.88,18.19-7.16.1-14.26-2.63-20.13-7.08-13.78-9.98-15.49-38.63-15.79-54.16.13-23.09,2.17-46.1,7.77-68.49,3.45-9.9,7.6-19.59,12.26-28.94.27,10.38.63,20.67,1.19,30.9-.81,21.61-1.57,43.55,1.52,65,1.84,12.32,3.67,24.99,8.16,36.23.08.17.13.27.17.44,0,0-.04-.04-.06-.04,0,0-.15-.1,0,.08.33.46.54.96.86,1.44,6.35,8.67,27.33,14.99,35.93,6.43h0Z"/>
      </g>
      <path class="st5" d="M1078.7,489.02c2.44-2.34,3.57-2.86,4.64-3.28.92-.4,1.86-.73,2.78-.65,1.48-.13,3.11-.42,4.57-.04,2.67.27,5.45.31,7.93,1.34l14.68,4.61c14.8,4.82,31.22,6.89,46.96,7.35,14.85.67,29.13-2.59,43.51-5.37,1.34.08,1.21,0,3.3.17l1.92.52c1.32.81,1.4,1.48,1.55,2.13.38,2.82-1.9,5.24-3.65,6.97-3.09,2.74-6.18,5.47-9.75,7.47-27,12.9-62.26,12.21-90.87,5.14-9.75-2.9-20.36-6.74-26.48-15.43-2.13-3.9-3.11-5.57-1.09-10.94h0Z"/>
    </g>
    <g>
      <g>
        <path class="st0" d="M1250.18,618.43c-16.2-48-29.52-95.98-2.32-117.57,32.01-25.41,78.97-14.11,80.97,2.4.4,3.26-3.86,11.32-6.93,14.41"/>
        <path class="st5" d="M1238.3,622.44c-4.18-18.25-10.13-35.91-13.22-54.56-3.88-24.1-4.61-54.7,16.79-71.83,11.96-9.42,26.73-14.53,41.61-15.93,14.85-1.29,31.61-.77,43.55,10.06,4.03,3.49,8.04,9.67,6.68,15.51-.69,3.47-3.74,5.78-5.93,7.89-1.84,1.57-3.78,3.05-5.87,4.05,1.57-3.9,2.23-8.64,1.82-12.61.21-5.49-9.42-8.44-14.49-9.96-19.36-6.41-42.57-1.52-57.52,12.44-14.87,14.39-10.57,37.67-6.45,56.38,4.11,17.16,9.42,34.26,16.81,50.55l-23.74,8.02h0l-.04-.02Z"/>
      </g>
      <g>
        <line class="st2" x1="1244.9" y1="493.24" x2="1226.32" y2="458.85"/>
        <path class="st5" d="M1244.9,493.24c-19.61-2.44-28.54-16.01-18.58-34.39,20.84,1.75,27.27,16.68,18.58,34.39h0Z"/>
      </g>
    </g>
    <g>
      <path class="st0" d="M1378.76,495.55c-34.37,20.29-48.02,75.73-18.85,105,20.61,20.69,57.65,23.34,80.83,7.87,37.83-25.24,32.78-94.81-2.69-115.51-18.42-10.73-42.91-7.04-59.28,2.63h0Z"/>
      <path class="st5" d="M1381.45,500.13c-23.16,16.81-33.68,53.81-22.88,79.59,5.37,12.88,17.08,21.38,30.4,25.18,14.2,4.57,30.92,4.57,45.06-1.36,12.8-6.31,21.76-18.58,26.06-32.05,4.91-15.18,5.43-32.72-.15-47.92-4.72-11.05-10.84-22.86-22.03-28.4-17.79-8.94-40.53-5.97-56.48,4.95h.02ZM1376.07,490.98c19.61-9.67,45.37-12.44,63.93.88,10.44,7.7,19.29,18.02,23.39,30.46,14.22,35.52,7.56,82.85-31.09,99.76-24.28,11.65-54.87,7.64-75.56-9.75-39.69-33.43-24.68-99.53,19.33-121.35h0Z"/>
    </g>
    <path class="st5" d="M1426.37,515.66c1.48,4.61,3.17,9.52,6.95,12.78.65.54,1.36.92,2.21.92.77,0,1.69-.33,2.21-.92,1.09-1.17,1.34-3.3,0-4.43-.4-.35-.79-.71-1.15-1.11-.17-.17-.31-.35-.46-.54-.4-.48.31.44.1.15-.06-.1-.15-.19-.21-.29-.63-.88-1.15-1.82-1.63-2.78-.1-.21-.21-.44-.31-.65-.06-.15-.1-.29-.19-.42.06.1.27.65.1.25-.21-.5-.4-1.02-.58-1.52-.38-1.02-.71-2.07-1.04-3.11-.5-1.57-2.19-2.71-3.86-2.19-1.57.5-2.71,2.17-2.19,3.86h.04Z"/>
  </g>
  <g id="bubbles">
    <path class="st4" d="M1451.84,486.1c5.57,7.27,16.2,8.25,23.01,2.74,5.87-4.76,7.52-13.28,4.55-19.67-4.09-8.83-16.54-12.55-24.6-6.41-6.83,5.2-8.6,16.01-2.97,23.34Z"/>
    <path class="st3" d="M1425.36,442.71c2.97,3.59,8.46,4.22,11.9,1.63,2.97-2.23,3.7-6.33,2.09-9.48-2.23-4.34-8.69-6.31-12.76-3.45-3.45,2.42-4.22,7.64-1.21,11.28l-.02.02Z"/>
  </g>
</svg>