<?xml version="1.0" encoding="UTF-8"?>
<svg id="logo_passionfruit" xmlns="http://www.w3.org/2000/svg" version="1.1" xmlns:xlink="http://www.w3.org/1999/xlink" viewBox="0 0 622 328">
  <!-- Generator: Adobe Illustrator 29.2.1, SVG Export Plug-In . SVG Version: 2.1.0 Build 116)  -->
  <defs>
    <style>
      .st0 {
        fill: #f2c1b6;
        stroke: #fff;
      }

      .st0, .st1, .st2, .st3 {
        stroke-miterlimit: 10;
      }

      .st4 {
        fill: #fff;
        font-family: Tomarik-DisplayLineShadow, Tomarik;
        font-size: 35.14px;
      }

      .st5 {
        fill: #333;
      }

      .st1 {
        stroke: url(#linear-gradient1);
      }

      .st1, .st2 {
        stroke-width: 2px;
      }

      .st1, .st2, .st3 {
        fill: none;
      }

      .st2 {
        stroke: url(#linear-gradient);
      }

      .st3 {
        stroke: #333;
        stroke-width: 12px;
      }

    #logo_passionfruit:hover {
      transition: all 0.5s ease;
      transform: scale(0.9) rotate(10deg);
      filter: drop-shadow(2px 10px #f2c1b6);
    }
    </style>
    <linearGradient id="linear-gradient" x1="552.16" y1="130.05" x2="571.46" y2="130.05" gradientUnits="userSpaceOnUse">
      <stop offset="0" stop-color="#fff"/>
      <stop offset="1" stop-color="#000"/>
    </linearGradient>
    <linearGradient id="linear-gradient1" x1="527.81" y1="138.21" x2="538.81" y2="138.21" gradientTransform="translate(12.71 -33.05) rotate(1.52) scale(.99 .93) skewX(2.95)" xlink:href="#linear-gradient"/>
  
    <script>
      const objSvg = document.querySelector("#logo_passionfruit");

      const logObjImgId = (e) => {
        console.log(e.currentTarget.id);
      }

      objSvg.addEventListener("click", logObjImgId);
    </script>
  
  </defs>
  <rect id="flavor_bg" class="st0" x="155.31" y="235.08" width="340.33" height="68.07" rx="8.44" ry="8.44"/>
  <text id="flavor_passionfruit" class="st4" transform="translate(165.8 281.71) scale(1.14 1)"><tspan x="0" y="0">PASSION Fruit</tspan></text>
  <g id="logo_text">
    <path class="st3" d="M156.54,202.87"/>
    <path class="st5" d="M148.77,182.33c3.61,4.1,7.92,7.41,12.82,9.18.34.15.63.37.93.58.64.45,1.37.49,2.05.97,1.8,1.06,3.7,1.97,5.59,2.9,0,0,4.7,2.13,4.7,2.13,2.43,1.09,5.06,2.45,7.76,3.07.9.15,1.98.4,2.61-.31.12.26-.03.58-.19.82-7.17,6.95-19.07,5.79-27.23,1.29-5.09-2.78-7.95-8.4-9.78-13.61-.68-2.05-1.16-4.09-1.33-6.26,0,0,2.07-.75,2.07-.75h0Z"/>
    <path class="st5" d="M73.32,61.15c.38,2.92-.5,3.58-2.01,5.29-1.06,1.27-2.06,2.64-2.99,4.04-5.63,8.49-9.31,18.25-11.27,28.22-2.75,13.46-1.24,27.3,1.55,40.65,4.51,22.09,18.34,40.17,38.09,50.57,18.94,10.13,43.26,6.29,59.5-7.52,27.79-23.24,31.14-72.05,18.62-104.08-4.86-12.23-12.56-23.7-24.2-30.17-11.58-6.08-25.96-7.71-38.75-4.79-27.78,6.17-42.79,36.22-43.16,62.85-.12,13.95,3.1,28.4,11.87,39.53,18.12,22.55,48.99,30.87,77.02,30.1,14.34-.59,28.94-3.69,41.36-11.17,0,0,.19.32.19.32-6.24,3.73-12.96,6.65-19.96,8.63-39.39,11.17-98.91-1.42-111.96-45.35-10.53-36.63,2.51-82.38,42.34-93.82,17.12-4.73,36.07-2.23,51.21,7.29,11.58,7.61,20.04,19.47,25.18,32.09,14.64,36.46,9.69,91.61-22.08,117.79-19.03,16.13-47.25,21.07-70.06,10.25-16.55-8.05-31.06-21.37-39.26-38.03-14.95-30.7-15.06-71.13,7.47-98.19,1.59-1.83,3.3-3.62,5.15-5.23,1.39-1.28,2.67-1.81,5.01-.91,0,0,1.14,1.64,1.14,1.64h0Z"/>
    <path class="st3" d="M152.99,193.71"/>
    <path class="st5" d="M219.62,132c-3.63,6.89-6.1,14.03-7.25,21.21-3.06,19.79,2.31,44.09,26.23,44.27,33.83-.13,30.5-42.99,20.66-65.49,10.96,11.47,17.79,28.37,15.2,44.49-1.53,10.8-6.73,21.96-16.53,27.8-9.75,5.84-22.02,6.88-32.67,2.81-17.09-6.43-24.45-26.74-22.32-43.74,1.64-11.95,7.82-23.55,16.67-31.36h0Z"/>
    <g>
      <path class="st5" d="M345.6,148c-6.74-10.36-19.67-16.27-31.28-10.71-10.57,4.92-16.72,17.45-18.48,28.5-1.13,7.78.53,15.73,4.63,22.16,3.98,6.43,10.21,12.47,17.93,14.03,13.14,2.72,27.15-7.06,31.04-19.59.83-3.2,1.03-6.51,1.47-9.82.05-.46.21-1.86.18-2.31-.08-7.56-1.38-15.95-5.49-22.25h0ZM350.65,144.79c4.61,7.91,5.75,16.72,5.55,25.58.01.61-.22,2.15-.31,2.8-1.3,8.88-3.75,18.07-9.57,25.14-3.72,4.38-8.53,7.53-13.84,9.72-12.52,5.22-26.59,1.06-36.44-7.67-14.06-12.48-15.89-34.84-7.58-51.01,2.38-4.64,5.25-8.88,9-12.55,9.79-9.43,24.49-12.09,36.75-7.12,7.07,2.83,12.77,8.73,16.44,15.1h0Z"/>
      <path class="st5" d="M349.71,192.21c1.4,1.57,1.96,3.39,2.54,5.18.95,3.08,1.29,4.29,3.55,6.51,1.17,1.05,2.88,1.87,4.87,3.05l.02.25c-1.8,1.39-3.94,2.25-6.46,2.29-7.54.05-11.94-9.98-9.33-16.39,0,0,4.81-.89,4.81-.89h0Z"/>
    </g>
    <g>
      <path class="st5" d="M415.73,198.3c-2.27,6.61-10.65,8.69-16.96,9.2-3.71,0-7.38-1.43-10.39-3.74-4.6-3.39-5.91-9.66-7.02-14.78-1.6-9.1-1.46-18.13-.73-27.2.32-5.57.96-11.07,2.07-16.53,1.03-7.74,4.36-14.96,7.51-22.02.02,4.45.05,8.84.17,13.2.18,3.16.03,6.54-.24,9.66-.17,3.18-.04,6.39-.13,9.56-.3,10.32.94,20.94,3.11,30.92.77,3.12,1.37,6.26,2.97,8.77,3.58,4.6,15.17,7.71,19.65,2.95h0Z"/>
      <path class="st5" d="M355.55,137c2.08-1.88,2.84-1.71,5.02-1.81,4.63.34,8.84,2.28,13.28,3.54,8,2.57,16.82,3.65,25.32,3.84,5.69.12,11.27-.44,16.76-1.84,2.17-.4,4.58-.81,6.65-1.49.62-.03.63-.07,1.63-.03,0,0,.92.25.92.25,2.21,1.58-1,4.54-2.3,5.53-3.78,3.44-8.69,5.04-13.56,6.23-14.39,3.29-34.95,2.59-48.06-4.58-1.55-.74-2.81-1.98-3.97-3.24-.67-.61-1.15-1.4-1.57-2.2-.3-.42-.44-.94-.51-1.48-.1-.59-.17-1.22.39-2.73h0Z"/>
    </g>
    <g>
      <path class="st5" d="M441.5,208.08c-2.32-9.7-5.49-19.12-7.16-29.05-2.09-12.73-2.58-28.89,8.68-37.96,6.31-5,14.12-7.74,22-8.49,7.85-.68,16.7-.36,23.03,5.29,2.09,1.81,4.19,4.96,3.5,7.99-.36,1.8-1.88,3.06-3.01,4.2-.94.86-1.94,1.66-3.02,2.23.91-2.05,1.35-4.53,1.22-6.66.3-3.19-5.05-4.9-7.89-5.76-10.48-3.42-23-.82-31.13,6.69-8.15,7.76-5.94,20.41-3.74,30.55,2.17,9.21,5.02,18.37,8.88,27.12,0,0-11.37,3.84-11.37,3.84h0Z"/>
      <path class="st5" d="M444.37,139.25c-9.67-1.7-14.4-9.07-9.93-18.38,10.25,1.37,13.81,9.36,9.93,18.38h0Z"/>
    </g>
    <path class="st5" d="M517.19,142.68c-12.67,9.02-18.51,28.95-12.62,43.02,2.94,7.05,9.34,11.74,16.62,13.82,7.75,2.46,16.83,2.39,24.46-.95,5.93-2.96,10.34-8.38,12.87-14.44,3.61-8.95,4.19-19.52.86-28.7-2.51-5.94-5.84-12.22-11.81-15.24-9.54-4.89-21.75-3.32-30.39,2.48h0ZM514.61,138.3c10.39-5.2,24.05-6.69,33.96.3,5.61,4.06,10.25,9.61,12.46,16.22,7.49,18.82,3.81,44.02-16.69,52.84-12.83,6.02-28.92,3.91-39.83-5.24-20.89-17.52-12.93-52.56,10.1-64.13h0Z"/>
    <path class="st5" d="M541.51,151.18c.78,2.44,1.67,5.03,3.68,6.76.59.51,1.55.63,2.12,0,.52-.56.64-1.58,0-2.12-.22-.19-.42-.38-.62-.6-.09-.09-.17-.19-.25-.29-.21-.25.14.2.03.04-.04-.05-.08-.1-.11-.15-.33-.47-.62-.97-.87-1.48-.06-.12-.11-.23-.16-.35,0-.01-.09-.22-.1-.22.01,0,.13.32.04.09-.11-.27-.21-.54-.31-.82-.2-.55-.38-1.1-.55-1.66-.24-.75-1.05-1.3-1.85-1.05-.75.24-1.3,1.04-1.05,1.85h0Z"/>
  </g>
  <g id="bubbles">
    <path class="st2" d="M554.96,135.43c2.98,3.88,8.66,4.41,12.3,1.46,3.14-2.55,4.02-7.1,2.44-10.51-2.19-4.72-8.83-6.71-13.15-3.42-3.65,2.78-4.6,8.56-1.58,12.47Z"/>
    <path class="st1" d="M540.81,112.24c1.59,1.92,4.52,2.26,6.35.88,1.58-1.19,1.97-3.39,1.11-5.06-1.19-2.32-4.64-3.37-6.82-1.84-1.84,1.3-2.25,4.09-.65,6.03Z"/>
  </g>
</svg>