<?xml version="1.0" encoding="UTF-8"?>
<svg id="logo_grapefruit" xmlns="http://www.w3.org/2000/svg" version="1.1" xmlns:xlink="http://www.w3.org/1999/xlink" viewBox="0 0 727 428">
  <!-- Generator: Adobe Illustrator 29.2.1, SVG Export Plug-In . SVG Version: 2.1.0 Build 116)  -->
  <defs>
    <style>
      .st0 {
        fill: #af88bf;
        stroke: #fff;
      }

      .st0, .st1, .st2 {
        stroke-miterlimit: 10;
      }

      .st3 {
        fill: #fff;
        font-family: Tomarik-DisplayLineShadow, Tomarik;
        font-size: 37.78px;
      }

      .st4 {
        fill: #333;
      }

      .st1 {
        stroke: url(#linear-gradient1);
      }

      .st1, .st2 {
        fill: none;
        stroke-width: 2px;
      }

      .st2 {
        stroke: url(#linear-gradient);
      }

      #logo_grapefruit:hover {
        transition: all 0.5s ease;
        transform: rotate(-10deg) scale(1.4);
        filter: drop-shadow(2px 7px #af88bf);
      }
    </style>
    <linearGradient id="linear-gradient" x1="599.57" y1="170.47" x2="618.33" y2="170.47" gradientUnits="userSpaceOnUse">
      <stop offset="0" stop-color="#fff"/>
      <stop offset="1" stop-color="#000"/>
    </linearGradient>
    <linearGradient id="linear-gradient1" x1="575.64" y1="179.25" x2="586.36" y2="179.25" gradientTransform="translate(12.11 -31.48) rotate(1.52) scale(.99 .93) skewX(2.95)" xlink:href="#linear-gradient"/>
  
    <script>
      const objSvg = document.querySelector("#logo_grapefruit");

      const logObjImgId = (e) => {
        console.log(e.currentTarget.id);
      }

      objSvg.addEventListener("click", logObjImgId);
    </script>
  
  </defs>
  <rect class="st0" x="211.74" y="278.95" width="329.7" height="65.94" rx="8.44" ry="8.44"/>
  <text class="st3" transform="translate(225.54 326.26) scale(1.14 1)"><tspan x="0" y="0">Grape Fruit</tspan></text>
  <g id="logo_text">
    <path class="st4" d="M208.84,221.1c2.41,2.74,5.32,5.1,8.2,6.77,1.75,1.15,3.61,1.48,5.19,2.54.62.44,1.31.46,1.97.92,1.74,1.03,3.56,1.91,5.38,2.82,0,0,4.53,2.09,4.53,2.09,2.34,1.08,4.89,2.44,7.49,3.07.88.15,1.91.41,2.54-.26.12.25-.03.57-.18.8-6.91,6.84-18.53,5.8-26.47,1.4-4.99-2.74-7.71-8.19-9.46-13.3-.65-2-1.09-3.98-1.25-6.1,0,0,2.07-.75,2.07-.75h0Z"/>
    <path class="st4" d="M135.73,103.75c.42,2.87-.4,3.5-1.88,5.18-1.02,1.23-1.98,2.55-2.88,3.91-8.98,13.78-13.07,30.55-12.14,46.92.39,6.53,1.51,13.23,2.8,19.68,4.46,22.05,18.81,40.24,38.91,49.89,20.98,10.01,47.4,2.62,62.12-14.98,23.5-27.82,23.75-81.98,1.84-110.76-3.87-4.95-8.45-9.31-13.98-12.32-11.18-5.88-25.07-7.46-37.43-4.65-26.86,5.94-41.38,35.01-41.77,60.75-.12,13.5,2.99,27.49,11.47,38.26,17.53,21.84,47.42,29.9,74.57,29.18,13.89-.57,28.04-3.56,40.06-10.81,0,0,.19.32.19.32-6.05,3.61-12.55,6.45-19.34,8.37-38.18,10.85-95.87-1.35-108.53-43.92-10.22-35.59,2.36-79.88,41.04-91.05,16.63-4.61,35.03-2.18,49.74,7.06,11.25,7.38,19.48,18.91,24.47,31.16,14.21,35.4,9.4,88.91-21.44,114.33-18.49,15.67-45.91,20.47-68.07,9.96-16.07-7.81-30.16-20.75-38.12-36.93-14.52-29.79-14.6-69.05,7.31-95.28,1.55-1.78,3.21-3.51,5.01-5.07,1.37-1.25,2.61-1.75,4.91-.83,0,0,1.14,1.64,1.14,1.64h0Z"/>
    <path class="st4" d="M277.44,172.36c-5.13,9.9-7.85,20.14-7.58,30.93-.11,10.28,3.11,21.87,11.34,27.94,7.92,5.54,19.24,5.63,27.79,1.4,13.16-7.24,14.32-25.51,12.64-39.19-.92-7.02-3-14.04-5.78-21.07,10.7,11.07,17.38,27.47,14.87,43.12-1.23,8.39-4.45,16.63-10.64,22.86-9.66,9.31-24.8,11.71-37.23,6.95-16.62-6.27-23.79-26.02-21.69-42.56,1.61-11.6,7.66-22.84,16.29-30.37h0Z"/>
    <g>
      <path class="st4" d="M399.41,187.91c-6.48-9.96-19.04-15.7-30.17-10.29-10.16,4.77-16.06,16.86-17.77,27.5-1.09,7.5.51,15.15,4.45,21.34,3.8,6.18,9.85,12.08,17.24,13.57,12.67,2.65,26.21-6.79,29.99-18.87.89-3.59,1.12-7.38,1.57-11.08,0,0,0-.66,0-.66-.08-7.3-1.34-15.43-5.32-21.5h0ZM404.46,184.7c4.47,7.69,5.57,16.23,5.38,24.83.01.6-.21,2.09-.3,2.72-1.27,8.61-3.65,17.54-9.28,24.41-3.61,4.26-8.28,7.33-13.44,9.46-12.18,5.09-25.87,1.05-35.46-7.41-13.69-12.12-15.48-33.9-7.39-49.62,2.32-4.52,5.11-8.63,8.76-12.2,9.55-9.17,23.84-11.72,35.76-6.89,6.87,2.76,12.41,8.5,15.97,14.69h0Z"/>
      <path class="st4" d="M403.55,230.67c3.09,3.54,2.33,8.16,5.85,11.26,1.11,1.03,2.77,1.86,4.69,3.04,0,0,.02.25.02.25-5.33,4.41-12.86,2.16-15.09-4.53-1.1-2.95-1.62-6.19-.28-9.12,0,0,4.81-.89,4.81-.89h0Z"/>
    </g>
    <g>
      <path class="st4" d="M467.43,236.58c-2.16,6.44-10.31,8.52-16.45,9.05-3.63.02-7.21-1.38-10.16-3.64-4.5-3.29-5.78-9.42-6.86-14.41-1.55-8.83-1.39-17.59-.67-26.39.34-4.31.58-8.61,1.46-12.85.63-3.16.97-6.37,1.88-9.47,1.7-5.12,3.77-10.16,6.08-15.02.05,4.31.1,8.57.25,12.8.19,3.06.06,6.34-.2,9.36-.16,3.08-.02,6.19-.1,9.26-.28,9.98.95,20.26,3.06,29.91.73,2.99,1.34,6.01,2.82,8.41,3.44,4.47,14.54,7.55,18.92,2.99h0Z"/>
      <path class="st4" d="M409.12,177.2c2.04-1.88,2.78-1.73,4.93-1.86,4.48.27,8.56,2.14,12.85,3.36,7.73,2.49,16.26,3.55,24.47,3.74,5.5.13,10.89-.4,16.2-1.74,2.09-.36,4.42-.76,6.43-1.36.64,0,.61-.05,1.61,0,0,0,.92.25.92.25,2.21,1.54-.92,4.45-2.2,5.44-3.65,3.37-8.42,4.94-13.15,6.09-13.96,3.21-33.94,2.58-46.66-4.41-1.51-.72-2.72-1.94-3.84-3.17-.65-.6-1.11-1.38-1.51-2.16-.29-.41-.42-.93-.48-1.46-.09-.58-.15-1.21.42-2.71h0Z"/>
    </g>
    <g>
      <path class="st4" d="M492.22,246.12c-2.22-9.41-5.3-18.54-6.91-28.17-2.02-12.37-2.47-28.08,8.49-36.89,6.14-4.86,13.73-7.5,21.38-8.23,7.63-.66,16.23-.37,22.38,5.15,2.04,1.77,4.09,4.86,3.41,7.82-.36,1.75-1.86,2.97-2.96,4.08-.92.83-1.9,1.6-2.96,2.15.86-1.99,1.26-4.41,1.12-6.47.24-3.02-4.89-4.64-7.6-5.46-10.11-3.32-22.21-.79-30.05,6.47-7.84,7.49-5.67,19.7-3.54,29.48,2.11,8.91,4.87,17.78,8.63,26.24,0,0-11.37,3.84-11.37,3.84h0Z"/>
      <path class="st4" d="M495.17,179.38c-9.58-1.53-14.18-8.66-9.62-17.81,10.16,1.2,13.59,8.96,9.62,17.81h0Z"/>
    </g>
    <path class="st4" d="M565.76,182.78c-12.19,8.72-17.79,28-12.12,41.55,2.83,6.78,8.99,11.29,16,13.29,7.47,2.38,16.23,2.33,23.6-.86,5.73-2.85,10-8.07,12.46-13.91,3.51-8.65,4.1-18.89.88-27.77-2.43-5.75-5.65-11.84-11.43-14.74-9.23-4.71-21.05-3.18-29.38,2.44h0ZM563.18,178.4c10.09-5.03,23.35-6.47,32.95.34,5.42,3.95,9.95,9.32,12.09,15.73,7.28,18.27,3.75,42.71-16.14,51.32-12.47,5.89-28.13,3.84-38.74-5.06-20.33-17.12-12.62-51.04,9.85-62.32h0Z"/>
    <path class="st4" d="M589.24,190.95c.76,2.37,1.63,4.89,3.57,6.57.59.51,1.55.63,2.12,0,.52-.56.64-1.58,0-2.12-.21-.18-.41-.37-.6-.58-.08-.09-.16-.18-.24-.28-.2-.24.14.2.04.05-.04-.05-.07-.1-.11-.15-.32-.45-.6-.94-.84-1.44-.05-.11-.11-.23-.16-.34-.03-.06-.05-.16-.09-.21.04.05.12.29.04.1-.1-.26-.21-.53-.3-.79-.19-.53-.37-1.07-.54-1.61-.24-.75-1.05-1.3-1.85-1.05-.75.24-1.3,1.04-1.05,1.85h0Z"/>
  </g>
  <g id="bubbles">
    <path class="st2" d="M602.31,175.68c2.89,3.76,8.39,4.27,11.91,1.41,3.04-2.47,3.89-6.87,2.36-10.18-2.12-4.57-8.56-6.5-12.74-3.32-3.54,2.7-4.45,8.29-1.53,12.08Z"/>
    <path class="st1" d="M588.6,153.22c1.54,1.86,4.38,2.19,6.16.85,1.53-1.15,1.91-3.28,1.08-4.91-1.16-2.25-4.5-3.27-6.61-1.78-1.79,1.26-2.18,3.96-.63,5.84Z"/>
  </g>
</svg>