<?xml version="1.0" encoding="UTF-8"?>
<svg id="logo_pineapple" xmlns="http://www.w3.org/2000/svg" version="1.1" xmlns:xlink="http://www.w3.org/1999/xlink" viewBox="0 0 1158.67 680">
  <!-- Generator: Adobe Illustrator 29.2.1, SVG Export Plug-In . SVG Version: 2.1.0 Build 116)  -->
  <defs>
    <style>
      .st0 {
        stroke: #333;
        stroke-width: 12px;
      }

      .st0, .st1, .st2 {
        fill: #fff;
      }

      .st0, .st3, .st4, .st5 {
        stroke-miterlimit: 10;
      }

      .st1 {
        font-family: Tomarik-DisplayLineShadow, Tomarik;
        font-size: 78.31px;
      }

      .st1, .st6 {
        isolation: isolate;
      }

      .st7, .st4, .st5 {
        fill: none;
      }

      .st8 {
        fill: #333;
      }

      .st3 {
        fill: #f2de79;
        stroke: #fff;
      }

      .st4 {
        stroke: url(#linear-gradient1);
      }

      .st4, .st5 {
        stroke-width: 2px;
      }

      .st5 {
        stroke: url(#linear-gradient);
      }
        #logo_pineapple:hover {
    transform: scale(1.2);
    filter: drop-shadow(5px 5px 10px #f2de79);
    } 
    </style>
    <linearGradient id="linear-gradient" x1="997.37" y1="282.49" x2="1029.6" y2="282.49" gradientUnits="userSpaceOnUse">
      <stop offset="0" stop-color="#fff"/>
      <stop offset="1" stop-color="#000"/>
    </linearGradient>
    <linearGradient id="linear-gradient1" x1="966.06" y1="267.58" x2="983.79" y2="267.58" gradientTransform="translate(10.55 -27.78) rotate(1.52) scale(.99 .93) skewX(2.95)" gradientUnits="userSpaceOnUse">
      <stop offset="0" stop-color="#fff"/>
      <stop offset="1" stop-color="#000"/>
    </linearGradient>
  
      <script>
      const objSvg = document.querySelector("#logo_pineapple");

      const logObjImgId = (e) => {
        console.log(e.currentTarget.id);
      }

      objSvg.addEventListener("click", logObjImgId);
    </script>

  </defs>
  <rect id="flavor_bg" class="st3" x="297.29" y="477.7" width="594.73" height="118.95" rx="8.44" ry="8.44"/>
  <g id="flavor_pineapple" class="st6">
    <g class="st6">
      <text class="st1" transform="translate(328.12 567.24) scale(1.14 1)"><tspan x="0" y="0">PINEAPPLE</tspan></text>
    </g>
  </g>
  <g id="logo_text">
    <g>
      <path class="st2" d="M289.91,374.49c1.57,4.36,9.22,19.4,23.3,26.7,22.46,11.65,42.23,8.34,42.23,5"/>
      <path d="M291.71,373.82c6.32,7.17,13.84,12.95,22.41,16.03.59.26,1.1.65,1.63,1.01,1.12.79,2.38.86,3.59,1.68,3.15,1.85,6.46,3.45,9.76,5.07l8.22,3.73c4.23,1.91,8.85,4.29,13.56,5.37,1.57.26,3.45.7,4.57-.52.21.45-.05,1.01-.33,1.43-12.53,12.14-33.33,10.13-47.59,2.26-8.89-4.86-13.89-14.68-17.09-23.79-1.19-3.59-2.01-7.14-2.33-10.93l3.62-1.31h0l-.02-.02h0Z"/>
    </g>
    <g>
      <path class="st2" d="M158.86,160.63c-13.79,9.6-45.7,50.79-39.08,115.34,6.89,67.28,39.08,98.51,71.27,117.74,50.89,30.39,119.54,9.6,149.44-48.06,32.33-62.39,25.86-167.81-32.19-209.04-28.74-20.42-92.55-29.79-132.19,18.02-29.88,36.04-34.83,89.19-21.83,128.55,24.7,74.89,141.22,98.79,211.51,67.28,5.7-2.55,10.37-5.16,13.79-7.21"/>
      <path class="st8" d="M159.87,162.07c.68,5.11-.87,6.25-3.5,9.24-1.85,2.22-3.59,4.6-5.23,7.07-9.83,14.84-16.27,31.89-19.7,49.32-4.79,23.51-2.17,47.71,2.69,71.03,7.87,38.61,32.03,70.19,66.55,88.37,33.1,17.7,75.59,10.99,103.97-13.14,48.57-40.61,54.41-125.91,32.54-181.87-8.48-21.38-21.94-41.43-42.28-52.71-20.24-10.62-45.36-13.47-67.72-8.38-48.55,10.78-74.77,63.3-75.42,109.83-.21,24.37,5.42,49.63,20.73,69.09,31.67,39.4,85.6,53.94,134.59,52.61,25.07-1.03,50.58-6.46,72.27-19.52l.33.56c-10.92,6.53-22.66,11.62-34.88,15.08-68.84,19.52-172.85-2.48-195.66-79.23-18.4-64.01,4.37-143.96,73.98-163.96,29.92-8.27,63.05-3.9,89.5,12.74,20.24,13.3,35.02,34.03,44.02,56.07,25.58,63.72,16.93,160.09-38.59,205.86-33.26,28.18-82.59,36.83-122.44,17.91-28.92-14.07-54.29-37.35-68.61-66.46-26.12-53.66-26.31-124.32,13.05-171.59,2.78-3.2,5.77-6.32,9.01-9.13,2.43-2.24,4.67-3.17,8.75-1.59l1.99,2.87h0l.07-.03v-.04Z"/>
    </g>
    <g>
      <path class="st2" d="M415.52,285.87c-31.46,40.05-26.47,92.62.26,114.13,16.93,13.63,43.98,14.05,62.4,3.15,27.9-16.5,38.31-68.4,6.6-117.28"/>
      <path class="st8" d="M415.52,285.87c-6.33,12.04-10.65,24.53-12.67,37.07-5.34,34.57,4.04,77.05,45.84,77.36,59.1-.23,53.29-75.12,36.11-114.43,19.16,20.05,31.09,49.56,26.57,77.75-2.66,18.88-11.77,38.38-28.88,48.6-17.04,10.22-38.49,12.04-57.1,4.92-29.86-11.25-42.72-46.73-39.01-76.45,2.85-20.89,13.68-41.15,29.15-54.79h0v-.02h-.01Z"/>
    </g>
    <g>
      <g>
        <path class="st2" d="M640.08,311.03c-2.68-4.22-12.65-19.8-31.58-24.84-20.22-5.37-40.47,2.66-52.5,17.35-26.75,32.64-24.77,79.11,8.92,102.61,8.4,5.86,16.78,8.73,24.77,9.48,23.39,2.22,40.13-13.87,42.28-16.2,13.19-14.28,15.43-26.01,17.72-45.24,0,0,1.52-25.65-9.6-43.16h-.02.01Z"/>
        <path class="st8" d="M635.67,313.83c-11.79-18.11-34.36-28.43-54.65-18.7-18.46,8.59-29.22,30.49-32.3,49.79-1.98,13.59.93,27.48,8.1,38.72,6.95,11.23,17.83,21.78,31.33,24.53,22.95,4.74,47.43-12.33,54.23-34.24,1.45-5.6,1.8-11.39,2.57-17.16.09-.8.37-3.25.31-4.04-.14-13.21-2.41-27.87-9.6-38.87h0v-.02h.01ZM644.51,308.23c8.05,13.82,10.04,29.22,9.71,44.7.02,1.07-.38,3.76-.54,4.9-2.27,15.52-6.56,31.58-16.72,43.95-6.51,7.65-14.91,13.17-24.2,16.99-21.89,9.11-46.48,1.85-63.68-13.4-24.58-21.82-27.76-60.9-13.24-89.15,4.15-8.12,9.17-15.52,15.73-21.94,17.11-16.48,42.81-21.12,64.22-12.44,12.35,4.95,22.32,15.27,28.74,26.4h-.02,0Z"/>
      </g>
      <g>
        <path class="st2" d="M638.67,391.87c2.05,11,1.89,27.12,23.37,25.21h0"/>
        <path class="st8" d="M642.86,391.09c2.45,2.75,3.43,5.93,4.44,9.06,1.66,5.37,2.26,7.49,6.19,11.37,2.03,1.84,5.04,3.27,8.5,5.34l.04.44c-3.15,2.43-6.88,3.94-11.3,4.01-13.19.09-20.87-17.44-16.31-28.66l8.41-1.56h.03Z"/>
      </g>
    </g>
    <path class="st0" d="M679.48,316.96"/>
    <g>
      <g>
        <path class="st2" d="M758.22,401.72c-2.89,5.41-12.56,10.74-28.78,8.12-8.24-1.33-12.82-6.26-14.4-8.12-7.51-8.82-17.58-59.1-1.43-131.17"/>
        <path class="st8" d="M758.22,401.72c-3.97,11.55-18.6,15.2-29.64,16.08-6.49.02-12.89-2.5-18.16-6.54-4.5-3.03-7.37-8.71-8.99-13.47-7.82-23.25-5.49-47.69-3.66-71.52,1.22-9.6,2.75-19.21,5.04-28.6,3.03-9.25,6.68-18.33,10.79-27.12.04,7.77.09,15.45.3,23.06.31,5.51.05,11.44-.42,16.88-.3,5.56-.07,11.18-.23,16.71-.52,18.04,1.64,36.58,5.44,54.04,1.35,5.44,2.4,10.93,5.2,15.33,6.3,8.06,26.45,13.47,34.32,5.16h.01Z"/>
      </g>
      <path class="st8" d="M653.06,294.62c3.62-3.29,4.97-2.99,8.78-3.17,8.08.59,15.45,3.99,23.2,6.19,13.98,4.5,29.39,6.39,44.23,6.72,9.94.21,19.7-.77,29.29-3.22,3.8-.7,7.99-1.42,11.62-2.59,1.08-.05,1.1-.12,2.85-.03l1.61.44c3.87,2.76-1.75,7.94-4.02,9.67-6.61,6-15.19,8.82-23.69,10.88-25.14,5.74-61.07,4.53-83.99-8-2.71-1.29-4.9-3.46-6.93-5.67-1.17-1.07-2.01-2.45-2.75-3.85-.52-.73-.77-1.64-.87-2.59-.17-1.03-.28-2.13.68-4.78h0v-.02.02Z"/>
    </g>
    <g>
      <g>
        <path class="st2" d="M813.19,415.47c-15.13-44.82-27.57-89.64-2.17-109.81,29.9-23.72,73.74-13.19,75.63,2.24.37,3.04-3.62,10.58-6.49,13.45"/>
        <path class="st8" d="M803.26,418.83c-4.04-16.95-9.59-33.41-12.53-50.77-3.66-22.25-4.51-50.49,15.19-66.34,11.04-8.75,24.68-13.52,38.45-14.84,13.72-1.19,29.18-.63,40.26,9.25,3.66,3.17,7.31,8.68,6.12,13.96-.63,3.15-3.29,5.35-5.27,7.35-1.64,1.5-3.39,2.9-5.28,3.9,1.59-3.57,2.34-7.93,2.13-11.63.52-5.56-8.82-8.55-13.79-10.06-18.32-5.98-40.19-1.42-54.39,11.69-14.22,13.56-10.37,35.67-6.53,53.38,3.8,16.1,8.78,32.1,15.52,47.39l-19.89,6.72h.01Z"/>
      </g>
      <g>
        <line class="st7" x1="808.28" y1="298.56" x2="790.92" y2="266.42"/>
        <path class="st8" d="M808.28,298.56c-16.92-2.96-25.17-15.83-17.35-32.12,17.91,2.38,24.14,16.36,17.35,32.12h0Z"/>
      </g>
    </g>
    <g>
      <path class="st2" d="M933.28,300.71c-32.09,18.95-44.84,70.71-17.62,98.06,19.24,19.31,53.83,21.8,75.49,7.35,35.32-23.58,30.62-88.54-2.52-107.87-17.2-10.02-40.06-6.58-55.35,2.45v.02h0Z"/>
      <path class="st8" d="M935.53,304.54c-22.13,15.75-32.33,50.59-22.04,75.17,5.13,12.32,16.32,20.52,29.04,24.14,13.54,4.3,29.41,4.18,42.74-1.64,10.36-5.18,18.07-14.64,22.5-25.23,6.32-15.64,7.33-34.11,1.5-50.14-4.37-10.39-10.22-21.34-20.64-26.63-16.67-8.54-38.02-5.79-53.1,4.34h0v-.02h0ZM931.02,296.88c18.16-9.1,42.04-11.69,59.34.54,9.8,7.1,17.91,16.79,21.78,28.34,13.09,32.89,6.67,76.92-29.16,92.35-22.43,10.53-50.56,6.84-69.61-9.15-36.51-30.62-22.6-91.86,17.65-112.09h0Z"/>
    </g>
    <path class="st8" d="M978.03,319.39c1.36,4.27,2.92,8.8,6.42,11.81,1.03.89,2.71,1.1,3.71,0,.91-.98,1.12-2.76,0-3.71-.38-.33-.73-.66-1.08-1.05-.16-.16-.3-.33-.44-.51-.37-.44.24.35.05.07-.07-.09-.14-.17-.19-.26-.58-.82-1.08-1.7-1.52-2.59-.11-.21-.19-.4-.28-.61,0-.03-.14-.38-.17-.38.04,0,.23.54.07.16-.19-.47-.37-.94-.54-1.43-.35-.96-.66-1.92-.96-2.9-.42-1.31-1.84-2.27-3.24-1.84-1.31.42-2.27,1.82-1.84,3.24h0l.02.02v-.02Z"/>
  </g>
  <g id="bubbles">
    <path class="st5" d="M1001.52,291.88c5.21,6.77,15.13,7.72,21.48,2.55,5.48-4.44,7.03-12.4,4.25-18.37-3.83-8.26-15.43-11.72-22.97-5.98-6.39,4.86-8.03,14.96-2.76,21.8h0Z"/>
    <path class="st4" d="M976.8,251.36c2.78,3.36,7.91,3.94,11.11,1.52,2.76-2.08,3.45-5.91,1.94-8.85-2.08-4.06-8.12-5.9-11.91-3.22-3.22,2.27-3.94,7.14-1.12,10.53l-.02.02h0Z"/>
  </g>
</svg>