<?xml version="1.0" encoding="UTF-8"?>
<svg id="logo_orange" xmlns="http://www.w3.org/2000/svg" version="1.1" xmlns:xlink="http://www.w3.org/1999/xlink" viewBox="0 0 636 363">
  <!-- Generator: Adobe Illustrator 29.2.1, SVG Export Plug-In . SVG Version: 2.1.0 Build 116)  -->
  <defs>
    <style>
      .st0 {
        stroke: #534741;
      }

      .st0, .st1, .st2, .st3, .st4, .st5, .st6 {
        stroke-miterlimit: 10;
      }

      .st0, .st1, .st2, .st5 {
        stroke-width: 12px;
      }

      .st0, .st1, .st2, .st5, .st7 {
        fill: #fff;
      }

      .st1 {
        stroke: #333;
      }

      .st2 {
        stroke: #000;
      }

      .st8 {
        fill: #333;
      }

      .st3 {
        fill: #ff954d;
        stroke: #fff;
      }

      .st4 {
        stroke: url(#linear-gradient1);
      }

      .st4, .st6 {
        fill: none;
        stroke-width: 2px;
      }

      .st5 {
        stroke: #58b900;
      }

      .st6 {
        stroke: url(#linear-gradient);
      }

      .st7 {
        font-family: Tomarik-DisplayLineShadow, Tomarik;
        font-size: 39.59px;
      }

      #logo_orange:hover {
        filter: drop-shadow(2px 10px #ff954d);
      }
    </style>
    <linearGradient id="linear-gradient" x1="541.76" y1="138.37" x2="560.74" y2="138.37" gradientUnits="userSpaceOnUse">
      <stop offset="0" stop-color="#fff"/>
      <stop offset="1" stop-color="#000"/>
    </linearGradient>
    <linearGradient id="linear-gradient1" x1="517.29" y1="147.85" x2="528.13" y2="147.85" gradientTransform="translate(12.71 -33.05) rotate(1.52) scale(.99 .93) skewX(2.95)" xlink:href="#linear-gradient"/>
  
    <script>
      const objSvg = document.querySelector("#logo_orange");

      const logObjImgId = (e) => {
        console.log(e.currentTarget.id);
      }

      objSvg.addEventListener("click", logObjImgId);
    </script>
  
  </defs>
  <rect id="flavor_bg" class="st3" x="159.94" y="249.12" width="334.03" height="66.81" rx="8.44" ry="8.44"/>
  <text id="flavor_orange" class="st7" transform="translate(222.56 295.28) scale(1.14 1)"><tspan x="0" y="0">Orange</tspan></text>
  <path class="st0" d="M153.48,209.84"/>
  <path class="st5" d="M384.45,230.03"/>
  <path class="st5" d="M381.87,230.03"/>
  <path class="st2" d="M150,200.85"/>
  <path class="st2" d="M386.88,218.47"/>
  <path class="st2" d="M384.3,218.47"/>
  <path class="st1" d="M363.64,157.74"/>
  <g id="logo_text">
    <path class="st8" d="M145.87,189.68c3.57,4.01,7.81,7.22,12.63,8.93.34.14.62.36.91.56.63.44,1.34.47,2,.94,1.77,1.04,3.62,1.94,5.47,2.86,0,0,4.6,2.1,4.6,2.1,2.37,1.08,4.96,2.44,7.6,3.07.89.15,1.94.41,2.57-.28.12.26-.03.58-.18.81-7.02,6.89-18.74,5.8-26.78,1.35-5.02-2.75-7.81-8.28-9.59-13.43-.66-2.02-1.12-4.03-1.29-6.16,0,0,2.07-.75,2.07-.75h0Z"/>
    <path class="st8" d="M71.81,70.76c.4,2.89-.44,3.53-1.93,5.22-1.04,1.25-2.01,2.59-2.93,3.96-9.12,13.96-13.27,30.97-12.34,47.57.4,6.62,1.53,13.41,2.84,19.96,4.53,22.36,19.08,40.82,39.46,50.6,21.29,10.16,48.09,2.66,63.03-15.2,23.83-28.21,24.09-83.14,1.86-112.31-3.93-5.02-8.57-9.44-14.19-12.49-11.34-5.96-25.43-7.56-37.97-4.71-27.24,6.04-41.95,35.5-42.34,61.61-.12,13.68,3.03,27.86,11.63,38.78,17.77,22.13,48.06,30.3,75.57,29.56,14.08-.58,28.41-3.62,40.59-10.95,0,0,.19.32.19.32-6.13,3.66-12.72,6.53-19.59,8.48-38.68,10.98-97.11-1.38-109.93-44.5-10.35-36,2.43-80.91,41.57-92.18,16.83-4.66,35.46-2.2,50.34,7.15,11.39,7.47,19.7,19.14,24.76,31.54,14.39,35.83,9.52,90.01-21.7,115.74-18.71,15.86-46.46,20.72-68.88,10.08-16.26-7.91-30.53-21-38.58-37.38-14.69-30.16-14.79-69.9,7.37-96.46,1.56-1.8,3.25-3.55,5.07-5.13,1.38-1.26,2.63-1.77,4.95-.87,0,0,1.14,1.64,1.14,1.64h0Z"/>
    <path class="st8" d="M215.39,140.28c-3.54,6.78-5.95,13.79-7.06,20.84-2.94,19.37,2.27,43.15,25.69,43.33,19.14.05,26.78-14.57,26.75-32.27.28-10.99-2.28-21.4-6.48-31.89,10.81,11.23,17.55,27.84,15,43.68-1.5,10.63-6.62,21.61-16.26,27.36-9.59,5.75-21.68,6.78-32.15,2.77-16.81-6.33-24.06-26.31-21.95-43.04,1.62-11.74,7.73-23.13,16.44-30.77h0Z"/>
    <g>
      <path class="st8" d="M338.99,156.01c-6.61-10.14-19.26-15.93-30.62-10.46-10.32,4.83-16.33,17.1-18.06,27.91-1.11,7.62.52,15.39,4.53,21.67,3.89,6.29,9.96,12.22,17.52,13.76,12.86,2.68,26.59-6.9,30.42-19.17.81-3.14,1.01-6.39,1.43-9.64.05-.45.21-1.83.18-2.27-.08-7.41-1.36-15.64-5.39-21.81h0ZM344.04,152.81c4.53,7.78,5.65,16.43,5.45,25.13.01.6-.21,2.11-.31,2.76-1.28,8.72-3.69,17.76-9.4,24.71-3.66,4.31-8.38,7.41-13.6,9.57-12.32,5.14-26.16,1.06-35.86-7.52-13.84-12.27-15.64-34.28-7.47-50.19,2.34-4.57,5.16-8.73,8.85-12.34,9.65-9.28,24.11-11.87,36.16-6.98,6.95,2.79,12.56,8.59,16.16,14.86h0Z"/>
      <path class="st8" d="M343.12,199.37c1.39,1.53,1.95,3.32,2.52,5.08.94,3.01,1.25,4.15,3.42,6.36,1.13,1.04,2.81,1.86,4.76,3.05l.02.25c-1.77,1.39-3.87,2.25-6.36,2.3-7.43.08-11.82-9.83-9.19-16.13,0,0,4.81-.89,4.81-.89h0Z"/>
    </g>
    <g>
      <path class="st8" d="M407.87,205.35c-1.91,5.88-9.16,8.19-14.81,8.93-5.01.8-10.24-1.43-13.83-5-9.35-11.27-6.51-42.08-3.86-56.01,1.01-7.6,4.32-14.69,7.44-21.6.03,4.37.08,8.68.22,12.96.19,3.1.04,6.42-.22,9.48-.17,3.12-.03,6.27-.11,9.39-.29,10.12.95,20.54,3.08,30.32.75,3.04,1.35,6.11,2.88,8.56,3.5,4.53,14.78,7.61,19.22,2.97h0Z"/>
      <path class="st8" d="M348.8,145.19c2.06-1.88,2.81-1.72,4.97-1.84,4.54.3,8.67,2.2,13.02,3.44,7.84,2.53,16.49,3.59,24.81,3.78,5.58.12,11.05-.42,16.43-1.78,2.12-.38,4.48-.78,6.52-1.42.64-.02.62-.06,1.62,0,0,0,.92.25.92.25,2.21,1.56-.96,4.49-2.24,5.48-3.71,3.4-8.53,4.98-13.31,6.15-14.14,3.24-34.34,2.59-47.23-4.48-1.53-.73-2.76-1.96-3.89-3.2-.66-.6-1.12-1.39-1.53-2.18-.3-.41-.42-.93-.49-1.47-.09-.58-.15-1.21.41-2.72h0Z"/>
    </g>
    <g>
      <path class="st8" d="M433.06,214.99c-2.26-9.53-5.37-18.78-7.02-28.53-2.05-12.52-2.51-28.41,8.57-37.32,6.21-4.92,13.89-7.6,21.63-8.33,7.72-.67,16.42-.37,22.64,5.21,2.06,1.78,4.13,4.9,3.45,7.89-.36,1.77-1.87,3.01-2.98,4.13-.93.84-1.91,1.63-2.99,2.18.88-2.01,1.3-4.46,1.16-6.55.27-3.09-4.95-4.75-7.72-5.58-10.26-3.36-22.53-.8-30.49,6.56-7.96,7.6-5.78,19.99-3.62,29.92,2.14,9.03,4.93,18.02,8.73,26.6,0,0-11.37,3.84-11.37,3.84h0Z"/>
      <path class="st8" d="M435.98,147.4c-9.62-1.6-14.27-8.82-9.75-18.04,10.19,1.27,13.68,9.12,9.75,18.04h0Z"/>
    </g>
    <path class="st8" d="M507.48,150.81c-12.38,8.84-18.08,28.39-12.32,42.15,2.87,6.89,9.14,11.47,16.26,13.5,7.58,2.41,16.47,2.35,23.95-.89,5.81-2.89,10.14-8.19,12.63-14.13,3.55-8.78,4.14-19.15.87-28.14-2.46-5.83-5.73-11.99-11.59-14.95-9.36-4.78-21.34-3.24-29.79,2.46h0ZM504.89,146.43c10.21-5.1,23.64-6.56,33.36.32,5.5,4,10.07,9.44,12.24,15.93,7.37,18.49,3.78,43.24-16.37,51.94-12.62,5.94-28.45,3.87-39.18-5.13-20.56-17.31-12.76-51.63,9.95-63.06h0Z"/>
    <path class="st8" d="M531.3,159.12c.77,2.4,1.65,4.95,3.61,6.64.59.51,1.55.63,2.12,0,.52-.56.64-1.58,0-2.12-.21-.18-.42-.38-.61-.58-.08-.09-.16-.19-.24-.28-.21-.24.14.2.03.05-.04-.05-.07-.1-.11-.15-.33-.46-.61-.95-.85-1.45-.05-.11-.11-.23-.16-.34-.02-.05-.05-.18-.1-.22.04.03.12.29.04.09-.11-.27-.21-.53-.31-.8-.19-.54-.37-1.08-.54-1.63-.24-.75-1.05-1.3-1.85-1.05-.75.24-1.3,1.04-1.05,1.85h0Z"/>
  </g>
  <g id="bubbles">
    <path class="st6" d="M544.52,143.65c2.93,3.81,8.5,4.33,12.07,1.43,3.08-2.5,3.95-6.96,2.39-10.32-2.15-4.63-8.67-6.59-12.91-3.36-3.58,2.73-4.51,8.4-1.55,12.24Z"/>
    <path class="st4" d="M530.63,120.89c1.56,1.89,4.44,2.22,6.24.86,1.55-1.17,1.94-3.32,1.09-4.97-1.17-2.28-4.56-3.31-6.69-1.81-1.81,1.28-2.21,4.01-.63,5.92Z"/>
  </g>
</svg>