<?xml version="1.0" encoding="UTF-8"?>
<svg id="main_logo" xmlns="http://www.w3.org/2000/svg" xmlns:xlink="http://www.w3.org/1999/xlink" viewBox="0 0 634 260">
  <defs>
    <style>
      .cls-1 {
        fill: #fff;
      }

      .cls-2 {
        stroke: url(#linear-gradient-2);
      }

      .cls-2, .cls-3 {
        fill: none;
        stroke-miterlimit: 10;
        stroke-width: 2px;
      }

      .cls-4 {
        fill: #1a1a1a;
      }

      .cls-3 {
        stroke: url(#linear-gradient);
      }
    </style>
    <linearGradient id="linear-gradient" x1="508.45" y1="118.51" x2="525.96" y2="118.51" gradientUnits="userSpaceOnUse">
      <stop offset=".26" stop-color="#e6e6e6"/>
      <stop offset=".26" stop-color="#e5e5e5"/>
      <stop offset=".38" stop-color="#a9a9a9"/>
      <stop offset=".49" stop-color="#757575"/>
      <stop offset=".61" stop-color="#4b4b4b"/>
      <stop offset=".71" stop-color="#2a2a2a"/>
      <stop offset=".82" stop-color="#131313"/>
      <stop offset=".92" stop-color="#040404"/>
      <stop offset="1" stop-color="#000"/>
    </linearGradient>
    <linearGradient id="linear-gradient-2" x1="483.71" y1="133.4" x2="493.78" y2="133.4" gradientTransform="translate(14.17 -36.83) rotate(1.52) scale(.99 .93) skewX(2.95)" xlink:href="#linear-gradient"/>
  </defs>
  <rect id="background" class="cls-1" width="634" height="260"/>
  <g id="text">
    <g>
      <path class="cls-1" d="M146.11,165.69c.81,2.23,4.73,9.95,11.95,13.69,11.52,5.98,21.65,4.28,21.65,2.57"/>
      <path class="cls-4" d="M147.15,165.32c2.31,2.48,5.05,4.61,7.75,6.07,1.35.74,2.72,1.28,3.99,1.7.58.25,1.01.75,1.65.88.28.06.64.24.94.44,2.92,1.73,5.93,3.11,9.01,4.63,2.13,1.05,4.47,2.4,6.86,3.08.81.17,1.76.44,2.36-.16.12.23-.01.54-.15.76-6.32,6.59-17.27,5.82-24.72,1.67-4.69-2.57-7.16-7.76-8.72-12.58-.57-1.88-.95-3.75-1.06-5.73,0,0,2.07-.75,2.07-.75h0Z"/>
    </g>
    <g>
      <path class="cls-1" d="M78.91,56.02c-7.07,4.93-23.44,26.04-20.04,59.15,3.54,34.5,20.04,50.52,36.55,60.38,26.1,15.59,61.31,4.93,76.64-24.65,16.58-32,13.26-86.05-16.51-107.21-14.74-10.47-47.46-15.28-67.79,9.24-15.33,18.48-17.86,45.74-11.2,65.93,12.67,38.41,72.42,50.66,108.47,34.5,2.93-1.31,5.32-2.64,7.07-3.7"/>
      <path class="cls-4" d="M79.48,56.84c.28,1.7.14,2.53-.2,3.23-1.38,1.72-2.82,3.39-4.01,5.29-4.94,7.59-8.17,16.29-9.89,25.16-2.42,11.98-1,24.29,1.46,36.17,3.98,19.62,16.3,35.69,33.82,44.91,19.46,10.47,44.9,3.94,58.87-12.8,18.66-22.27,20.54-60.06,10.29-86.43-4.34-10.83-11.05-21.02-21.36-26.78-10.24-5.41-23.02-6.87-34.36-4.32-30.94,6.94-44.29,46.39-36.22,74.53,4.74,18.79,21.54,31.63,39.18,37.86,23.79,8.28,52.67,8.76,74.96-4.14,0,0,.19.32.19.32-5.6,3.34-11.61,5.98-17.89,7.76-30.3,8.37-70.09,2.16-91.2-22.78-8.75-10.43-11.99-24.3-12.43-37.63-.86-20.46,5.97-41.91,22.37-55.08,18.09-14.84,45.42-15.57,65.07-3.19,35.38,23.57,37.3,85.23,16.8,119.11-14.77,24.96-47.52,37.95-74.88,26.51-16.09-6.95-30.14-19.64-37.98-35.45-12.08-24.8-13.28-55.86.82-80.05,3.21-5.19,6.97-10.29,11.89-13.99.85-.4,2-.57,3.59.18l1.14,1.64h0Z"/>
    </g>
    <g>
      <path class="cls-1" d="M210.53,120.25c-16.13,20.54-13.58,47.5.14,58.53,8.68,6.99,22.56,7.2,32.01,1.61,14.31-8.46,19.64-35.08,3.38-60.15"/>
      <path class="cls-4" d="M210.53,120.25c-4.62,9.24-7.01,18.67-6.69,28.64-.04,15.25,7.04,29.43,23.71,29.43,17.22.04,23.97-12.97,24.05-28.92.34-10.01-1.86-19.47-5.53-29.14,7.51,7.5,12.87,17.87,14.29,28.65,1.25,11.57-1.72,24.07-10.09,32.69-9.04,8.75-23.23,11.03-34.88,6.54-15.53-5.87-22.26-24.34-20.24-39.81,1.56-10.77,7.28-21.2,15.39-28.07h0Z"/>
    </g>
    <g>
      <g>
        <path class="cls-1" d="M325.7,133.15c-1.37-2.16-6.49-10.16-16.2-12.74-10.37-2.76-20.76,1.36-26.93,8.9-13.72,16.74-12.7,40.57,4.57,52.62,4.3,3,8.61,4.47,12.7,4.86,11.99,1.14,20.58-7.12,21.68-8.3,6.76-7.32,7.91-13.34,9.09-23.2,0,0,.78-13.15-4.92-22.14Z"/>
        <path class="cls-4" d="M323.17,134.76c-5.91-9.05-17.51-14.35-27.61-9.31-9.26,4.48-14.52,15.44-16.11,25.18-1,6.84.47,13.8,4.04,19.43,3.43,5.63,8.9,11.1,15.63,12.49,11.58,2.48,24.04-6.16,27.53-17.2.73-2.86.89-5.82,1.28-8.77.04-.41.18-1.65.16-2.05-.09-6.71-1.26-14.21-4.92-19.77h0ZM328.23,131.55c4.16,7.17,5.17,15.09,4.98,23.09-.25,2.93-.73,5.87-1.47,8.76,0,0-.87,3.12-.87,3.12-1.2,4.84-3.44,9.45-6.55,13.36-10.14,11.69-26.73,14.43-39.91,6.18-17.58-9.63-21.55-33.6-12.73-50.52,2.17-4.22,4.79-8.04,8.21-11.37,15.08-13.97,38.57-10.66,48.34,7.37h0Z"/>
      </g>
      <g>
        <path class="cls-1" d="M324.97,174.61c1.05,5.65.97,13.9,11.99,12.93h0"/>
        <path class="cls-4" d="M327.38,174.16c2.13,2.04,2.44,5.65,3.66,7.82.95,2.48,3.23,3.7,5.91,5.43,0,0,.02.25.02.25-1.61,1.38-3.54,2.24-5.88,2.33-6.87.21-11.26-9.12-8.53-14.94,0,0,4.81-.89,4.81-.89h0Z"/>
      </g>
    </g>
    <g>
      <g>
        <path class="cls-1" d="M386.29,179.67c-1.48,2.77-6.44,5.51-14.76,4.16-4.23-.68-6.57-3.21-7.38-4.16-3.85-4.52-9.02-30.3-.74-67.27"/>
        <path class="cls-4" d="M386.29,179.67c-1.91,6.07-9.54,8.13-15.27,8.71-3.43.05-6.83-1.26-9.64-3.39-6.6-4.78-7.42-18.5-7.56-25.94.06-11.06,1.04-22.08,3.72-32.8,1.65-4.74,3.64-9.38,5.87-13.86.13,4.97.3,9.9.57,14.8-.39,10.35-.75,20.86.73,31.13.88,5.9,1.76,11.97,3.91,17.35.04.08.06.13.08.21,0,0-.02-.02-.03-.02,0,0-.07-.05,0,.04.16.22.26.46.41.69,3.04,4.15,13.09,7.18,17.21,3.08h0Z"/>
      </g>
      <path class="cls-4" d="M332.35,124.73c1.17-1.12,1.71-1.37,2.22-1.57.44-.19.89-.35,1.33-.31.71-.06,1.49-.2,2.19-.02,1.28.13,2.61.15,3.8.64,0,0,7.03,2.21,7.03,2.21,7.09,2.31,14.95,3.3,22.49,3.52,7.11.32,13.95-1.24,20.84-2.57.64.04.58,0,1.58.08,0,0,.92.25.92.25.63.39.67.71.74,1.02.18,1.35-.91,2.51-1.75,3.34-1.48,1.31-2.96,2.62-4.67,3.58-12.93,6.18-29.82,5.85-43.52,2.46-4.67-1.39-9.75-3.23-12.68-7.39-1.02-1.87-1.49-2.67-.52-5.24h0Z"/>
    </g>
    <g>
      <g>
        <path class="cls-1" d="M414.48,186.71c-7.76-22.99-14.14-45.97-1.11-56.31,15.33-12.17,37.82-6.76,38.78,1.15.19,1.56-1.85,5.42-3.32,6.9"/>
        <path class="cls-4" d="M408.79,188.63c-2-8.74-4.85-17.2-6.33-26.13-1.86-11.54-2.21-26.2,8.04-34.4,5.73-4.51,12.8-6.96,19.93-7.63,7.11-.62,15.14-.37,20.86,4.82,1.93,1.67,3.85,4.63,3.2,7.43-.33,1.66-1.79,2.77-2.84,3.78-.88.75-1.81,1.46-2.81,1.94.75-1.87,1.07-4.14.87-6.04.1-2.63-4.51-4.04-6.94-4.77-9.27-3.07-20.39-.73-27.55,5.96-7.12,6.89-5.06,18.04-3.09,27,1.97,8.22,4.51,16.41,8.05,24.21,0,0-11.37,3.84-11.37,3.84h0Z"/>
      </g>
      <g>
        <line class="cls-1" x1="411.95" y1="126.75" x2="403.05" y2="110.28"/>
        <path class="cls-4" d="M411.95,126.75c-9.39-1.17-13.67-7.67-8.9-16.47,9.98.84,13.06,7.99,8.9,16.47h0Z"/>
      </g>
    </g>
    <g>
      <path class="cls-1" d="M476.06,127.86c-16.46,9.72-23,36.27-9.03,50.29,9.87,9.91,27.61,11.18,38.71,3.77,18.12-12.09,15.7-45.41-1.29-55.32-8.82-5.14-20.55-3.37-28.39,1.26Z"/>
      <path class="cls-4" d="M477.35,130.05c-11.09,8.05-16.13,25.77-10.96,38.12,2.57,6.17,8.18,10.24,14.56,12.06,6.8,2.19,14.81,2.19,21.58-.65,6.13-3.02,10.42-8.9,12.48-15.35,2.35-7.27,2.6-15.67-.07-22.95-2.26-5.29-5.19-10.95-10.55-13.6-8.52-4.28-19.41-2.86-27.05,2.37h0ZM474.77,125.67c9.39-4.63,21.73-5.96,30.62.42,5,3.69,9.24,8.63,11.2,14.59,6.81,17.01,3.62,39.68-14.89,47.78-11.63,5.58-26.28,3.66-36.19-4.67-19.01-16.01-11.82-47.67,9.26-58.12h0Z"/>
    </g>
    <path class="cls-4" d="M498.86,137.49c.71,2.21,1.52,4.56,3.33,6.12.31.26.65.44,1.06.44.37,0,.81-.16,1.06-.44.52-.56.64-1.58,0-2.12-.19-.17-.38-.34-.55-.53-.08-.08-.15-.17-.22-.26-.19-.23.15.21.05.07-.03-.05-.07-.09-.1-.14-.3-.42-.55-.87-.78-1.33-.05-.1-.1-.21-.15-.31-.03-.07-.05-.14-.09-.2.03.05.13.31.05.12-.1-.24-.19-.49-.28-.73-.18-.49-.34-.99-.5-1.49-.24-.75-1.05-1.3-1.85-1.05-.75.24-1.3,1.04-1.05,1.85h0Z"/>
  </g>
  <g id="bubbles">
    <path class="cls-3" d="M511.06,123.33c2.67,3.48,7.76,3.95,11.02,1.31,2.81-2.28,3.6-6.36,2.18-9.42-1.96-4.23-7.92-6.01-11.78-3.07-3.27,2.49-4.12,7.67-1.42,11.18Z"/>
    <path class="cls-2" d="M498.38,102.55c1.42,1.72,4.05,2.02,5.7.78,1.42-1.07,1.77-3.03,1-4.54-1.07-2.08-4.16-3.02-6.11-1.65-1.65,1.16-2.02,3.66-.58,5.4Z"/>
  </g>
</svg>